<svg xmlns="http://www.w3.org/2000/svg" viewBox="0 0 680 380" width="680" height="380" role="img" aria-label="Wasserstein-1 on age: the policy is 3-4x closer at every budget">
<style>:root{--sf:#fcfcfb;--ink:#0b0b0b;--ink2:#52514e;--mut:#898781;--gr:#e1e0d9;--ax:#c3c2b7;--s1:#2a78d6;--s2:#eb6834;--s3:#1baf7a;}@media (prefers-color-scheme:dark){:root{--sf:#1a1a19;--ink:#ffffff;--ink2:#c3c2b7;--mut:#898781;--gr:#2c2c2a;--ax:#383835;--s1:#3987e5;--s2:#d95926;--s3:#199e70;}}.t{font:13px system-ui,sans-serif;fill:var(--ink2)}.ti{font:600 15px system-ui,sans-serif;fill:var(--ink)}.sub{font:12px system-ui,sans-serif;fill:var(--mut)}.lb{font:600 12px system-ui,sans-serif}</style>
<rect width="680" height="380" fill="var(--sf)"/>
<text x="26" y="24" class="ti">Wasserstein-1 on age: the policy is 3-4x closer at every budget</text>
<text x="26" y="42" class="sub">mean over 5 seeds, log scale. Lower is better.</text>
<line x1="66" y1="274.2" x2="562" y2="274.2" stroke="var(--gr)" stroke-width="1"/>
<text x="56" y="278.2" class="t" text-anchor="end">0.1</text>
<line x1="66" y1="134.3" x2="562" y2="134.3" stroke="var(--gr)" stroke-width="1"/>
<text x="56" y="138.3" class="t" text-anchor="end">1</text>
<line x1="66" y1="328" x2="562" y2="328" stroke="var(--ax)" stroke-width="1"/>
<text x="66.0" y="350" class="t" text-anchor="middle">0.000625</text>
<text x="190.0" y="350" class="t" text-anchor="middle">0.0025</text>
<text x="314.0" y="350" class="t" text-anchor="middle">0.01</text>
<text x="438.0" y="350" class="t" text-anchor="middle">0.04</text>
<text x="562.0" y="350" class="t" text-anchor="middle">0.16</text>
<text x="26" y="372" class="sub">privacy budget rho</text>
<path d="M66.0 72.2 L190.0 140.9 L314.0 187.7 L438.0 220.3 L562.0 235.6" fill="none" stroke="var(--s1)" stroke-width="2" stroke-linejoin="round" stroke-linecap="round"/>
<circle cx="66.0" cy="72.2" r="4.5" fill="var(--s1)" stroke="var(--sf)" stroke-width="2"/>
<circle cx="190.0" cy="140.9" r="4.5" fill="var(--s1)" stroke="var(--sf)" stroke-width="2"/>
<circle cx="314.0" cy="187.7" r="4.5" fill="var(--s1)" stroke="var(--sf)" stroke-width="2"/>
<circle cx="438.0" cy="220.3" r="4.5" fill="var(--s1)" stroke="var(--sf)" stroke-width="2"/>
<circle cx="562.0" cy="235.6" r="4.5" fill="var(--s1)" stroke="var(--sf)" stroke-width="2"/>
<path d="M66.0 159.2 L190.0 198.7 L314.0 255.3 L438.0 289.7 L562.0 310.5" fill="none" stroke="var(--s2)" stroke-width="2" stroke-linejoin="round" stroke-linecap="round"/>
<circle cx="66.0" cy="159.2" r="4.5" fill="var(--s2)" stroke="var(--sf)" stroke-width="2"/>
<circle cx="190.0" cy="198.7" r="4.5" fill="var(--s2)" stroke="var(--sf)" stroke-width="2"/>
<circle cx="314.0" cy="255.3" r="4.5" fill="var(--s2)" stroke="var(--sf)" stroke-width="2"/>
<circle cx="438.0" cy="289.7" r="4.5" fill="var(--s2)" stroke="var(--sf)" stroke-width="2"/>
<circle cx="562.0" cy="310.5" r="4.5" fill="var(--s2)" stroke="var(--sf)" stroke-width="2"/>
<text x="573.0" y="239.6" class="lb" fill="var(--s1)">stock</text>
<text x="573.0" y="314.5" class="lb" fill="var(--s2)">policy</text>
</svg>