<svg xmlns="http://www.w3.org/2000/svg" viewBox="0 0 680 380" width="680" height="380" role="img" aria-label="3-way workload error, all four arms">
<style>:root{--sf:#fcfcfb;--ink:#0b0b0b;--ink2:#52514e;--mut:#898781;--gr:#e1e0d9;--ax:#c3c2b7;--s1:#2a78d6;--s2:#eb6834;--s3:#1baf7a;}@media (prefers-color-scheme:dark){:root{--sf:#1a1a19;--ink:#ffffff;--ink2:#c3c2b7;--mut:#898781;--gr:#2c2c2a;--ax:#383835;--s1:#3987e5;--s2:#d95926;--s3:#199e70;}}.t{font:13px system-ui,sans-serif;fill:var(--ink2)}.ti{font:600 15px system-ui,sans-serif;fill:var(--ink)}.sub{font:12px system-ui,sans-serif;fill:var(--mut)}.lb{font:600 12px system-ui,sans-serif}</style>
<rect width="680" height="380" fill="var(--sf)"/>
<text x="26" y="24" class="ti">3-way workload error, all four arms</text>
<text x="26" y="42" class="sub">3-way workload error, AIM's native metric. Mean over 5 seeds. Lower is better.</text>
<line x1="66" y1="328.0" x2="530" y2="328.0" stroke="var(--gr)" stroke-width="1"/>
<text x="56" y="332.0" class="t" text-anchor="end">0.00</text>
<line x1="66" y1="262.5" x2="530" y2="262.5" stroke="var(--gr)" stroke-width="1"/>
<text x="56" y="266.5" class="t" text-anchor="end">0.20</text>
<line x1="66" y1="197.0" x2="530" y2="197.0" stroke="var(--gr)" stroke-width="1"/>
<text x="56" y="201.0" class="t" text-anchor="end">0.40</text>
<line x1="66" y1="131.5" x2="530" y2="131.5" stroke="var(--gr)" stroke-width="1"/>
<text x="56" y="135.5" class="t" text-anchor="end">0.60</text>
<line x1="66" y1="66.0" x2="530" y2="66.0" stroke="var(--gr)" stroke-width="1"/>
<text x="56" y="70.0" class="t" text-anchor="end">0.80</text>
<line x1="66" y1="328.0" x2="530" y2="328.0" stroke="var(--ax)" stroke-width="1"/>
<text x="66.0" y="350" class="t" text-anchor="middle">0.000625</text>
<text x="182.0" y="350" class="t" text-anchor="middle">0.0025</text>
<text x="298.0" y="350" class="t" text-anchor="middle">0.01</text>
<text x="414.0" y="350" class="t" text-anchor="middle">0.04</text>
<text x="530.0" y="350" class="t" text-anchor="middle">0.16</text>
<text x="26" y="372" class="sub">zCDP budget rho (geometric, x4 per step)</text>
<path d="M66.0 136.8 L182.0 182.0 L298.0 209.2 L414.0 219.0 L530.0 221.8" fill="none" stroke="var(--s1)" stroke-width="2" stroke-linejoin="round" stroke-dasharray="5 4"/>
<circle cx="66.0" cy="136.8" r="3.6" fill="var(--s1)" stroke="var(--sf)" stroke-width="1.5"/>
<circle cx="182.0" cy="182.0" r="3.6" fill="var(--s1)" stroke="var(--sf)" stroke-width="1.5"/>
<circle cx="298.0" cy="209.2" r="3.6" fill="var(--s1)" stroke="var(--sf)" stroke-width="1.5"/>
<circle cx="414.0" cy="219.0" r="3.6" fill="var(--s1)" stroke="var(--sf)" stroke-width="1.5"/>
<circle cx="530.0" cy="221.8" r="3.6" fill="var(--s1)" stroke="var(--sf)" stroke-width="1.5"/>
<path d="M66.0 137.6 L182.0 172.6 L298.0 206.1 L414.0 218.8 L530.0 221.3" fill="none" stroke="var(--s1)" stroke-width="2" stroke-linejoin="round"/>
<circle cx="66.0" cy="137.6" r="3.6" fill="var(--s1)" stroke="var(--sf)" stroke-width="1.5"/>
<circle cx="182.0" cy="172.6" r="3.6" fill="var(--s1)" stroke="var(--sf)" stroke-width="1.5"/>
<circle cx="298.0" cy="206.1" r="3.6" fill="var(--s1)" stroke="var(--sf)" stroke-width="1.5"/>
<circle cx="414.0" cy="218.8" r="3.6" fill="var(--s1)" stroke="var(--sf)" stroke-width="1.5"/>
<circle cx="530.0" cy="221.3" r="3.6" fill="var(--s1)" stroke="var(--sf)" stroke-width="1.5"/>
<path d="M66.0 154.0 L182.0 191.8 L298.0 213.7 L414.0 220.6 L530.0 230.0" fill="none" stroke="var(--s2)" stroke-width="2" stroke-linejoin="round" stroke-dasharray="5 4"/>
<circle cx="66.0" cy="154.0" r="3.6" fill="var(--s2)" stroke="var(--sf)" stroke-width="1.5"/>
<circle cx="182.0" cy="191.8" r="3.6" fill="var(--s2)" stroke="var(--sf)" stroke-width="1.5"/>
<circle cx="298.0" cy="213.7" r="3.6" fill="var(--s2)" stroke="var(--sf)" stroke-width="1.5"/>
<circle cx="414.0" cy="220.6" r="3.6" fill="var(--s2)" stroke="var(--sf)" stroke-width="1.5"/>
<circle cx="530.0" cy="230.0" r="3.6" fill="var(--s2)" stroke="var(--sf)" stroke-width="1.5"/>
<path d="M66.0 123.7 L182.0 165.8 L298.0 198.7 L414.0 217.9 L530.0 221.8" fill="none" stroke="var(--s2)" stroke-width="2" stroke-linejoin="round"/>
<circle cx="66.0" cy="123.7" r="3.6" fill="var(--s2)" stroke="var(--sf)" stroke-width="1.5"/>
<circle cx="182.0" cy="165.8" r="3.6" fill="var(--s2)" stroke="var(--sf)" stroke-width="1.5"/>
<circle cx="298.0" cy="198.7" r="3.6" fill="var(--s2)" stroke="var(--sf)" stroke-width="1.5"/>
<circle cx="414.0" cy="217.9" r="3.6" fill="var(--s2)" stroke="var(--sf)" stroke-width="1.5"/>
<circle cx="530.0" cy="221.8" r="3.6" fill="var(--s2)" stroke="var(--sf)" stroke-width="1.5"/>
<line x1="538" y1="76" x2="564" y2="76" stroke="var(--s1)" stroke-width="2" stroke-dasharray="5 4"/>
<text x="570" y="80" class="lb" fill="var(--s1)">bounded stock</text>
<line x1="538" y1="98" x2="564" y2="98" stroke="var(--s1)" stroke-width="2"/>
<text x="570" y="102" class="lb" fill="var(--s1)">bounded policy</text>
<line x1="538" y1="120" x2="564" y2="120" stroke="var(--s2)" stroke-width="2" stroke-dasharray="5 4"/>
<text x="570" y="124" class="lb" fill="var(--s2)">unbounded stock</text>
<line x1="538" y1="142" x2="564" y2="142" stroke="var(--s2)" stroke-width="2"/>
<text x="570" y="146" class="lb" fill="var(--s2)">unbounded policy</text>
</svg>